<mxfile host="app.diagrams.net" modified="2023-08-14T13:25:19.981Z" agent="Mozilla/5.0 (Macintosh; Intel Mac OS X 10_15_7) AppleWebKit/537.36 (KHTML, like Gecko) Chrome/114.0.0.0 Safari/537.36" etag="mDFIU8GfTcwClaPBYDti" version="21.6.8" type="github">
  <diagram name="第 1 页" id="3JGEkbxYB8eR9lTnZSir">
    <mxGraphModel dx="985" dy="536" grid="1" gridSize="10" guides="1" tooltips="1" connect="1" arrows="1" fold="1" page="1" pageScale="1" pageWidth="827" pageHeight="1169" math="0" shadow="0">
      <root>
        <mxCell id="0" />
        <mxCell id="1" parent="0" />
        <mxCell id="P6E9gaAujzoY7Z_B9MhC-1" value="AiGenerateService(HSF)&lt;br&gt;与大模型直接交互" style="rounded=0;whiteSpace=wrap;html=1;fillColor=#d5e8d4;gradientColor=#97d077;strokeColor=#82b366;" parent="1" vertex="1">
          <mxGeometry x="380" y="230" width="140" height="50" as="geometry" />
        </mxCell>
        <mxCell id="P6E9gaAujzoY7Z_B9MhC-2" value="SeoArticleProcessService(HSF)&lt;br&gt;对SEO文章处理，总结" style="rounded=0;whiteSpace=wrap;html=1;fillColor=#fff2cc;strokeColor=#d6b656;gradientColor=#ffd966;" parent="1" vertex="1">
          <mxGeometry x="149" y="230" width="180" height="50" as="geometry" />
        </mxCell>
        <mxCell id="P6E9gaAujzoY7Z_B9MhC-3" value="OpenAI&lt;br&gt;ChatGPT" style="shape=mxgraph.cisco.servers.www_server;sketch=0;html=1;pointerEvents=1;dashed=0;fillColor=#036897;strokeColor=#ffffff;strokeWidth=2;verticalLabelPosition=bottom;verticalAlign=top;align=center;outlineConnect=0;" parent="1" vertex="1">
          <mxGeometry x="634" y="230" width="40" height="40" as="geometry" />
        </mxCell>
        <mxCell id="P6E9gaAujzoY7Z_B9MhC-5" value="" style="endArrow=classic;html=1;rounded=0;" parent="1" edge="1">
          <mxGeometry relative="1" as="geometry">
            <mxPoint x="530" y="240" as="sourcePoint" />
            <mxPoint x="630" y="240" as="targetPoint" />
          </mxGeometry>
        </mxCell>
        <mxCell id="P6E9gaAujzoY7Z_B9MhC-6" value="request" style="edgeLabel;resizable=0;html=1;align=center;verticalAlign=middle;" parent="P6E9gaAujzoY7Z_B9MhC-5" connectable="0" vertex="1">
          <mxGeometry relative="1" as="geometry" />
        </mxCell>
        <mxCell id="P6E9gaAujzoY7Z_B9MhC-7" value="" style="endArrow=classic;html=1;rounded=0;" parent="1" edge="1">
          <mxGeometry relative="1" as="geometry">
            <mxPoint x="630" y="260" as="sourcePoint" />
            <mxPoint x="530" y="260" as="targetPoint" />
          </mxGeometry>
        </mxCell>
        <mxCell id="P6E9gaAujzoY7Z_B9MhC-8" value="json" style="edgeLabel;resizable=0;html=1;align=center;verticalAlign=middle;" parent="P6E9gaAujzoY7Z_B9MhC-7" connectable="0" vertex="1">
          <mxGeometry relative="1" as="geometry" />
        </mxCell>
        <mxCell id="P6E9gaAujzoY7Z_B9MhC-11" value="" style="endArrow=classic;html=1;rounded=0;entryX=0;entryY=0.5;entryDx=0;entryDy=0;" parent="1" target="P6E9gaAujzoY7Z_B9MhC-1" edge="1">
          <mxGeometry width="50" height="50" relative="1" as="geometry">
            <mxPoint x="330" y="255" as="sourcePoint" />
            <mxPoint x="370" y="254.5" as="targetPoint" />
          </mxGeometry>
        </mxCell>
        <mxCell id="P6E9gaAujzoY7Z_B9MhC-12" value="" style="shape=mxgraph.cisco.servers.storage_server;sketch=0;html=1;pointerEvents=1;dashed=0;fillColor=#036897;strokeColor=#ffffff;strokeWidth=2;verticalLabelPosition=bottom;verticalAlign=top;align=center;outlineConnect=0;" parent="1" vertex="1">
          <mxGeometry x="400" y="295" width="54" height="83" as="geometry" />
        </mxCell>
        <mxCell id="P6E9gaAujzoY7Z_B9MhC-13" value="SeoArticleProcessDailyTask" style="rounded=0;whiteSpace=wrap;html=1;fillColor=#dae8fc;strokeColor=#6c8ebf;gradientColor=#7ea6e0;" parent="1" vertex="1">
          <mxGeometry x="149" y="315" width="180" height="60" as="geometry" />
        </mxCell>
        <mxCell id="P6E9gaAujzoY7Z_B9MhC-14" value="" style="endArrow=classic;html=1;rounded=0;exitX=0.5;exitY=0;exitDx=0;exitDy=0;" parent="1" source="P6E9gaAujzoY7Z_B9MhC-13" edge="1">
          <mxGeometry width="50" height="50" relative="1" as="geometry">
            <mxPoint x="240" y="310" as="sourcePoint" />
            <mxPoint x="238.5" y="280" as="targetPoint" />
          </mxGeometry>
        </mxCell>
        <mxCell id="P6E9gaAujzoY7Z_B9MhC-15" value="" style="endArrow=classic;html=1;rounded=0;" parent="1" edge="1">
          <mxGeometry width="50" height="50" relative="1" as="geometry">
            <mxPoint x="329" y="344.5" as="sourcePoint" />
            <mxPoint x="399" y="344.5" as="targetPoint" />
          </mxGeometry>
        </mxCell>
        <mxCell id="P6E9gaAujzoY7Z_B9MhC-16" value="" style="shape=mxgraph.cisco.servers.storage_server;sketch=0;html=1;pointerEvents=1;dashed=0;fillColor=#036897;strokeColor=#ffffff;strokeWidth=2;verticalLabelPosition=bottom;verticalAlign=top;align=center;outlineConnect=0;" parent="1" vertex="1">
          <mxGeometry x="457" y="295" width="54" height="83" as="geometry" />
        </mxCell>
        <mxCell id="P6E9gaAujzoY7Z_B9MhC-17" value="SEO文章论坛" style="text;html=1;strokeColor=none;fillColor=none;align=center;verticalAlign=middle;whiteSpace=wrap;rounded=0;" parent="1" vertex="1">
          <mxGeometry x="417" y="385" width="80" height="30" as="geometry" />
        </mxCell>
        <mxCell id="P6E9gaAujzoY7Z_B9MhC-19" value="ScheduleX任务每天定时爬取最新文章进行总结生成摘要并发送到小组群" style="rounded=0;whiteSpace=wrap;html=1;fillColor=#fff2cc;strokeColor=#d6b656;" parent="1" vertex="1">
          <mxGeometry x="230" y="385" width="160" height="60" as="geometry" />
        </mxCell>
        <mxCell id="P6E9gaAujzoY7Z_B9MhC-20" value="" style="endArrow=classic;html=1;rounded=0;exitX=0.75;exitY=0;exitDx=0;exitDy=0;" parent="1" source="P6E9gaAujzoY7Z_B9MhC-19" edge="1">
          <mxGeometry width="50" height="50" relative="1" as="geometry">
            <mxPoint x="340" y="380" as="sourcePoint" />
            <mxPoint x="360" y="350" as="targetPoint" />
          </mxGeometry>
        </mxCell>
      </root>
    </mxGraphModel>
  </diagram>
</mxfile>
